<?xml version="1.0" encoding="UTF-8" standalone="no"?>
<!DOCTYPE svg PUBLIC "-//W3C//DTD SVG 1.1//EN" "http://www.w3.org/Graphics/SVG/1.1/DTD/svg11.dtd">
<svg width="100%" height="100%" viewBox="0 0 400 400" version="1.1" xmlns="http://www.w3.org/2000/svg" xmlns:xlink="http://www.w3.org/1999/xlink" xml:space="preserve" xmlns:serif="http://www.serif.com/" style="fill-rule:evenodd;clip-rule:evenodd;stroke-linejoin:round;stroke-miterlimit:2;">
    <path d="M153,97C140.774,102.275 129.149,111.697 120.805,122C94.835,154.066 89.816,197.981 108.37,235C130.432,279.015 190.265,303.292 236,282C245.459,306.381 257.22,330.106 267.861,354C269.497,357.673 275.708,376.935 281.671,372.338C287.627,367.746 275.403,352.846 275.247,347C274.92,334.761 287.826,314.999 295.326,306C301.006,299.184 307.759,293.794 316,290.453C324.827,286.874 335.951,285.563 341.518,276.91C349.161,265.028 339.503,259.168 339.056,248C338.752,240.421 347.243,234.326 337,229C337.85,225.786 339.361,222.372 338.551,219C337.847,216.067 334.292,213.194 335.203,210.039C337.489,202.125 348.116,200.44 343.441,190C337.2,176.062 319.479,170.263 311.938,157C307.698,149.543 308.004,139.077 304.218,131C290.774,102.318 267.264,78.134 236,69.884C218.651,65.306 199.76,64.035 182,66.58C175.171,67.558 159.407,75.181 153.275,72.647C149.686,71.164 147.992,64.257 146.576,61C143.074,52.949 139.294,45.024 135.73,37C134.295,33.769 133.119,28.88 129.79,27.047C119.534,21.401 127.759,40.526 128.861,43C136.877,60.999 145.435,78.806 153,97ZM157,83L269,333L270,333C276.527,316.412 285.889,298.394 301,288.093C309.842,282.066 327.23,280.575 333.297,271.956C338.636,264.372 331.707,258.394 330.058,251C328.799,245.357 331.396,241.203 333,236C325.416,230.478 330.565,227.916 328.586,221.039C327.149,216.045 321.342,214.201 323.862,208.039C325.89,203.08 336.233,199.055 334.003,193.025C329.491,180.821 311.01,173.322 303.995,162C300.628,156.567 301.069,149.975 299.279,144C296.348,134.221 291.502,125.275 285.572,117C258.524,79.257 200.386,60.23 157,83ZM143,260C145.99,265.465 152.566,268.111 158,270.742C174.065,278.519 190.427,280 208,280L187,273.186L167,262.996L155,256.042L143,260ZM166,251C179.638,260.193 194.584,266.88 211,269L191.004,253.086L180.961,244.816L166,251ZM211,230L191,239C199.595,251.726 214.7,260.002 228,267C224.74,255.596 218.578,239.145 211,230ZM117,229C118.265,236.011 127.061,251.685 135.001,252.469C139.121,252.876 144.145,249.313 148,248L133,223L117,229ZM143,219C144.265,226.011 153.061,241.685 161.001,242.469C165.121,242.876 170.145,239.313 174,238L159,213L143,219ZM170,206C171.718,211.962 178.135,228.849 185.093,230.006C191.288,231.036 202.276,223.38 208,221L196,195L170,206ZM106,192L112,220L128,214L121,186L106,192ZM131,180L137,209L156,201L147,174L131,180ZM165,197L192,185L180,159C174.966,160.714 159.62,165.014 157.694,170.275C155.14,177.248 162.773,190.417 165,197ZM137,119C119.616,132.356 107.061,158.034 107,180C125.715,174.65 121.947,154.827 128.72,139C131.04,133.579 137.835,124.722 137,119ZM145,127C139.067,141.178 131.681,154.188 131,170L143.972,163.301L144.985,154L145,127ZM159,114L155,159L176,150C171.682,138.87 167.018,122.88 159,114Z" style="fill:white;"/>
    <g id="Layer1">
    </g>
</svg>
